<?xml version="1.0" standalone="no"?>
<!DOCTYPE svg PUBLIC "-//W3C//DTD SVG 1.1//EN" "http://www.w3.org/Graphics/SVG/1.1/DTD/svg11.dtd" >
<svg xmlns="http://www.w3.org/2000/svg">
<metadata>
Created by FontForge 20120731 at Mon Dec 26 13:51:17 2016
 By admin
</metadata>
<defs>
<font id="iconfont" horiz-adv-x="1024" >
  <font-face 
    font-family="iconfont"
    font-weight="500"
    font-stretch="normal"
    units-per-em="1024"
    panose-1="2 0 6 3 0 0 0 0 0 0"
    ascent="896"
    descent="-128"
    x-height="792"
    bbox="-0.327869 -128 1214 896"
    underline-thickness="0"
    underline-position="0"
    unicode-range="U+0078-E6FF"
  />
<missing-glyph 
 />
    <glyph glyph-name=".notdef" 
 />
    <glyph glyph-name=".notdef" 
 />
    <glyph glyph-name=".null" horiz-adv-x="0" 
 />
    <glyph glyph-name="nonmarkingreturn" horiz-adv-x="341" 
 />
    <glyph glyph-name="x" unicode="x" horiz-adv-x="1001" 
d="M281 543q-27 -1 -53 -1h-83q-18 0 -36.5 -6t-32.5 -18.5t-23 -32t-9 -45.5v-76h912v41q0 16 -0.5 30t-0.5 18q0 13 -5 29t-17 29.5t-31.5 22.5t-49.5 9h-133v-97h-438v97zM955 310v-52q0 -23 0.5 -52t0.5 -58t-10.5 -47.5t-26 -30t-33 -16t-31.5 -4.5q-14 -1 -29.5 -0.5
t-29.5 0.5h-32l-45 128h-439l-44 -128h-29h-34q-20 0 -45 1q-25 0 -41 9.5t-25.5 23t-13.5 29.5t-4 30v167h911zM163 247q-12 0 -21 -8.5t-9 -21.5t9 -21.5t21 -8.5q13 0 22 8.5t9 21.5t-9 21.5t-22 8.5zM316 123q-8 -26 -14 -48q-5 -19 -10.5 -37t-7.5 -25t-3 -15t1 -14.5
t9.5 -10.5t21.5 -4h37h67h81h80h64h36q23 0 34 12t2 38q-5 13 -9.5 30.5t-9.5 34.5q-5 19 -11 39h-368zM336 498v228q0 11 2.5 23t10 21.5t20.5 15.5t34 6h188q31 0 51.5 -14.5t20.5 -52.5v-227h-327z" />
    <glyph glyph-name="menu" unicode="&#xe6ff;" 
d="M61 811h927v-144h-927v144zM61 471h927v-145h-927v145zM61 130h927v-144h-927v144z" />
    <glyph glyph-name="username" unicode="&#xe617;" 
d="M214 -113h-1v0v0h1zM1020 -81q4 -8 4 -15q0 -13 -9.5 -22.5t-23 -9.5t-23 9.5t-9.5 22.5h-1q-34 152 -159 252t-287 100t-287 -100t-159 -252h-1q0 -13 -9.5 -22.5t-23 -9.5t-23 9.5t-9.5 22.5q0 7 4 15q30 134 124.5 235.5t227.5 142.5q-77 41 -123.5 115.5t-46.5 163.5
q0 87 43.5 160.5t118.5 116.5t164 43t164 -43t118.5 -116.5t43.5 -160.5q0 -89 -46.5 -163.5t-123.5 -115.5q133 -41 227.5 -142.5t124.5 -235.5v0zM773 576q0 106 -76.5 181t-184.5 75t-184.5 -75t-76.5 -181t76.5 -181t184.5 -75t184.5 75t76.5 181v0z" />
    <glyph glyph-name="batch" unicode="&#xe6ed;" 
d="M779 296v-104v-192q-1 -53 -52 -53h-611q-52 0 -52 53v657q0 53 53 53h110q-19 -29 -20 -30q-13 -24 -14 -50q0 -6 -2 -8t-7 -3q-22 0 -26 -4t-4 -26v-539q0 -8 2 -11t10 -3q272 1 506 0q10 0 13.5 3.5t3.5 13.5q-1 18 -1 145q0 10 5 15q7 7 80 81q2 3 6 2zM624 203
q-5 4 -6 4q-76 76 -82 81q-4 7 -3.5 8.5t5.5 5.5q32 33 136 140q91 93 109 111q9 10 18 1q27 -28 77 -76q8 -8 1 -15q-46 -47 -249 -254zM688 521v87q1 7 -1.5 9.5t-9.5 2.5q-21 -2 -25 1q-3 2 -4 6.5t-0.5 9t-0.5 8.5q-6 34 -33 64h125q14 0 24.5 -10.5t13.5 -25.5
q1 -2 1 -6.5t1 -6.5q9 -52 -34 -86q-9 -7 -18.5 -15.5t-21 -20zM879 639q12 -1 21 -10q7 -7 24 -23.5t26 -25.5q21 -22 0 -44l-13.5 -13.5t-14.5 -15.5q-7 -7 -13 -1q-32 33 -80 79q-8 8 -1 14q5 5 30 31q9 8 21 9zM484 130q-13 0 -19.5 7.5t-2.5 19.5q7 24 26 77
q7 21 11 22t20 -15q53 -52 65 -63q5 -5 4.5 -7.5t-7.5 -4.5q-14 -6 -41 -16t-38 -14q-1 -1 -18 -6zM269 410q-9 0 -17 6q-29 25 -33 29q-16 14 -2 32q14 19 33 8q13 -8 17.5 -7.5t15.5 12.5l17.5 17.5l20.5 20.5q4 4 8 5t6.5 0t7 -4.5t5.5 -4.5q9 -6 0 -19q-25 -36 -54 -80
q-10 -16 -25 -15zM237 163q10 0 17 -8q11 -11 23 2q10 11 43 44q12 12 29 -3q8 -7 -1 -19q-4 -6 -24 -35.5t-31 -45.5q-18 -27 -44 -5q-4 3 -13.5 11.5t-15.5 13.5q-13 10 -6.5 26.5t23.5 18.5zM269 247q-11 1 -17 6q-2 2 -14.5 12.5t-19.5 16.5q-15 15 -1 33q15 18 33 7
q13 -9 17 -8.5t14 11.5q37 36 40 40q4 4 8 4.5t6 0t7 -4t6 -4.5q9 -6 0 -19q-38 -56 -55 -82q-9 -13 -24 -13zM604 637q-9 63 -74 94q-10 5 -12 14q-7 35 -34 57t-62 22q-35 1 -62 -20.5t-35 -56.5q-3 -12 -15 -17q-60 -28 -71 -88q-6 -28 8 -45t42 -17h132v0h135
q25 0 38.5 16t9.5 41zM450 716h-29h-30q-10 0 -10 10q0 15 12 27t29 12q15 -1 27 -12.5t12 -26.5q0 -10 -11 -10z" />
    <glyph glyph-name="content" unicode="&#xe653;" horiz-adv-x="1103" 
d="M945 -128h-630q-65 0 -111 46t-46 112v551q0 65 46 111t111 46h630q65 0 111.5 -46t46.5 -111v-551q0 -66 -46.5 -112t-111.5 -46zM1024 581q0 33 -23 56t-56 23h-630q-33 0 -56 -23t-23 -56v-551q0 -33 23 -56t56 -23h630q33 0 56 23t23 56v551zM315 148h630v-79h-630
v79zM315 345h473v-79h-473v79zM315 542h236v-79h-236v79zM788 817h-630q-33 0 -56 -23t-23 -56v-551q0 -45 39 -68v-84q-51 13 -84.5 55.5t-33.5 96.5v551q0 66 46 112t112 46h630q54 0 96 -33.5t56 -84.5h-84q-23 39 -68 39z" />
    <glyph glyph-name="nextPage2" unicode="&#xe606;" 
d="M421 143q12 -12 28.5 -12t27.5 12l200 205q12 12 12 29t-12 29l-200 206q-11 12 -27.5 12t-28.5 -12t-12 -29t12 -29l172 -177l-172 -176q-12 -12 -12 -29t12 -29v0v0zM421 143z" />
    <glyph glyph-name="minus" unicode="&#xe613;" 
d="M0 896v-1024h1024v1024h-1024zM983 -87h-942v942h942v-942zM288 364h448q9 0 15 6t6 14t-6 14t-15 6h-448q-9 0 -15 -6t-6 -14t6 -14t15 -6z" />
    <glyph glyph-name="icon" unicode="&#xe60c;" 
d="M783 336h-8v0q-43 29 -94 48h-1q49 36 77.5 90.5t28.5 117.5q0 106 -75.5 182t-182.5 76t-182.5 -76t-75.5 -182q0 -64 29 -119t79 -91v0q-61 -22 -110.5 -58t-79.5 -73.5t-52 -82.5t-32.5 -79t-16.5 -69t-6.5 -47t-0.5 -19h64q1 8 3 22t12 53.5t25.5 76t45.5 81t68.5 76
t98 53.5t131.5 22q85 0 154 -30q-42 -26 -66.5 -69.5t-24.5 -94.5q0 -79 56 -135.5t136 -56.5q69 0 122 44q35 30 53 71q16 37 16 77q0 80 -56 136t-135 56zM528 397q-80 0 -137 57t-57 137.5t57 137.5t137 57t137 -57t57 -137.5t-57 -137.5t-137 -57zM748 19
q-32 34 -68 59.5t-63 33.5l85 45l41 -69q2 5 7.5 15t22.5 36.5t35.5 49.5t47.5 47.5t59 37.5q-1 -7 -3 -23.5t-2.5 -25t1.5 -22.5t9 -26q-32 -7 -89 -61.5t-83 -96.5z" />
    <glyph glyph-name="nextPage" unicode="&#xe64b;" 
d="M683 368v0q6 8 5 18v0q0 5 -3 10v0q0 1 -1 2v0.5v0.5l-1 1h-1q0 1 -1 2l-302 302q-8 7 -18.5 7t-17.5 -7t-7 -17.5t7 -18.5l284 -284l-284 -284q-7 -8 -7 -18.5t7 -17.5t17.5 -7t18.5 7l302 302l0.5 0.5l0.5 0.5z" />
    <glyph glyph-name="wallet" unicode="&#xe63b;" 
d="M751 581q-2 2 -45 23q2 3 8 8q46 43 61 86q4 11 12 38q5 36 -2 59t-28 41q-56 47 -129 17q-5 -2 -8 1q-45 42 -107.5 42t-107.5 -41q-4 -3 -8 -1q-36 16 -76 8q-39 -8 -63.5 -37.5t-19.5 -70.5q9 -74 59 -128q1 -1 21 -23l-2 -1t-3 -1q-128 -58 -208 -174t-91 -258
q-6 -95 13 -156q20 -62 68.5 -101.5t111.5 -39.5h306.5h306.5q96 0 152 82q19 27 33 89q1 4 2 5t2 1t1.5 9t0.5 28q0 117 -17 178q-57 210 -243 317zM959 81q-9 -59 -26 -84q-24 -35 -65.5 -55t-86.5 -20h-271h-270q-60 0 -107 31t-61 85q-14 56 -7 154q4 62 33.5 125.5
t74.5 116t99 95t112 68.5q0 1 -11 11t-23.5 22t-15.5 14q-24 28 -36.5 51t-16.5 55q-8 62 59 76q10 2 28 -2.5t32 -10t15 -4.5q39 37 94.5 37t94.5 -38q3 -3 8 -1q24 10 39.5 14t34.5 1.5t35 -16.5q18 -16 21.5 -32t-1.5 -41q-3 -9 -15.5 -31t-20.5 -33q-22 -29 -67 -73
l17.5 -9t38 -19.5t26.5 -14.5q47 -36 75.5 -61t59 -58t49.5 -70.5t31 -83.5q7 -26 10.5 -40.5t8.5 -38t6.5 -40.5t1.5 -38.5t-3 -41.5v0v0zM446 436q-3 4 -11.5 13t-15.5 16l-6 6h-50v-22t124 -128h-124v-49h124v-51h-124v-49h124v-100h50v100h125v50h-125v50h125v49h-125
l125 128v22h-50q-43 -42 -53 -52q-1 -1 -9.5 -10t-20 -21t-17.5 -17z" />
    <glyph glyph-name="prodmanager" unicode="&#xe603;" horiz-adv-x="1025" 
d="M792 -62h-560q-43 0 -72.5 30t-29.5 72v535q0 42 29.5 72t72.5 30h51q0 22 14.5 48t42 50.5t73 40.5t99.5 16q58 0 104.5 -16t72.5 -40.5t39 -50t13 -48.5h52q43 0 72.5 -30t29.5 -72v-535q0 -42 -30 -72t-73 -30zM512 781q-49 0 -86.5 -11t-56 -28t-27 -33.5t-8.5 -31.5
h356q0 15 -9.5 31.5t-29 33.5t-56 28t-83.5 11zM844 575q0 21 -14.5 36t-36.5 15h-52v-153h-51v153h-356v-153h-51v153h-51q-22 0 -36.5 -15t-14.5 -36v-433h663v433zM844 91h-663v-51q0 -21 14.5 -36t36.5 -15h561q22 0 36.5 15t14.5 36v51v0z" />
    <glyph glyph-name="xiayiye" unicode="&#xe63f;" 
d="M748 397l-446 428q-5 6 -13 6t-13 -5.5t-5 -13t5 -12.5l433 -416l-433 -416q-5 -5 -5 -12.5t5 -13t13 -5.5t13 6l446 428q5 6 5 13t-5 13z" />
    <glyph glyph-name="menupanel" unicode="&#xe604;" 
d="M312 334h-101q-41 0 -70.5 -29.5t-29.5 -70.5v-100q0 -42 29.5 -71.5t70.5 -29.5h101q41 0 70.5 29.5t29.5 71.5v100q0 41 -29.5 70.5t-70.5 29.5zM261.5 134q-20.5 0 -35.5 14.5t-15 35t15 35.5t35.5 15t35.5 -15t15 -35.5t-15 -35t-35.5 -14.5zM562 634h301q20 0 35 15
t15 35.5t-15 35.5t-35 15h-301q-21 0 -35.5 -15t-14.5 -35.5t14.5 -35.5t35.5 -15zM312 735h-101q-41 0 -70.5 -29.5t-29.5 -71.5v-100q0 -41 29.5 -70.5t70.5 -29.5h101q41 0 70.5 29.5t29.5 70.5v100q0 42 -29.5 71.5t-70.5 29.5zM261.5 534q-20.5 0 -35.5 15t-15 35.5
t15 35t35.5 14.5t35.5 -14.5t15 -35t-15 -35.5t-35.5 -15zM863 334h-301q-21 0 -35.5 -14.5t-14.5 -35.5t14.5 -35.5t35.5 -14.5h301q20 0 35 14.5t15 35.5t-15 35.5t-35 14.5zM863 534h-301q-21 0 -35.5 -14.5t-14.5 -35.5t14.5 -35.5t35.5 -14.5h301q20 0 35 14.5t15 35.5
t-15 35.5t-35 14.5zM863 134h-301q-21 0 -35.5 -15t-14.5 -35.5t14.5 -35.5t35.5 -15h301q20 0 35 15t15 35.5t-15 35.5t-35 15z" />
    <glyph glyph-name="myfortune" unicode="&#xe6c1;" horiz-adv-x="1127" 
d="M966 152q9 0 15.5 5.5t6.5 14t-6.5 14.5t-15.5 6h-76l65 71q4 4 2.5 11t-8 12.5t-14 6.5t-11.5 -4l-66 -73l-66 73q-4 5 -11.5 4t-14 -6.5t-8 -12.5t3.5 -11l64 -71h-58q-9 0 -15 -6t-6 -14.5t6 -14t15 -5.5h70v-40h-70q-9 0 -15 -6t-6 -14t6 -14t15 -6h70v-54
q0 -7 6 -12t14.5 -5t14.5 5t6 12v54h87q9 0 15.5 6t6.5 14t-6.5 14t-15.5 6h-87v40h87zM283 589q0 98 71 167t171.5 69t171.5 -69t71 -167q0 -60 -29 -113q25 9 51 14q19 48 19 99q0 114 -83 195t-200.5 81t-200.5 -81t-83 -195q0 -83 45.5 -151t120.5 -101
q-155 -38 -263.5 -156.5t-128.5 -274.5h40q16 112 82.5 205t170 147t222.5 54h1v0q4 1 19 2q13 23 29 44q-28 -6 -54 -6q-101 0 -172 69.5t-71 167.5v0zM859.5 421q-109.5 0 -186.5 -75.5t-77 -182t77 -182t186.5 -75.5t186.5 75.5t77 182t-77 182t-186.5 75.5zM859.5 -54
q-92.5 0 -158 64t-65.5 154t65.5 153.5t158 63.5t157.5 -63.5t65 -153.5t-65 -154t-157.5 -64z" />
    <glyph glyph-name="16" unicode="&#xe63a;" horiz-adv-x="1145" 
d="M1088 575l-417 288q-34 28 -73.5 31.5t-65.5 -7t-46 -26.5l-442 -304q-52 -34 -43 -71q9 -33 61 -37h2h104v-459q0 -49 32.5 -83.5t79.5 -34.5h305q14 0 23 10q10 10 10 23v273h151q12 0 21.5 9t9.5 22t-9.5 22t-21.5 9h-151v69h151q12 0 21.5 9.5t9.5 22.5t-9.5 22
t-21.5 9h-108l111 119q9 10 8.5 22.5t-9.5 21.5t-22 8.5t-22 -9.5l-140 -151l-137 152q-8 9 -21 10t-22.5 -8t-10 -21.5t7.5 -22.5l109 -121h-107q-13 0 -22 -9t-9 -22t9 -22.5t22 -9.5h150v-69h-150q-13 0 -22 -9t-9 -22t9 -22t22 -9h150v-243h-276q-21 0 -35.5 16
t-14.5 39v485q0 1 -0.5 2t-0.5 2v0.5v0.5q0 13 -9 22t-22 9h-111l436 299q1 1 3 2q5 4 12.5 8.5t22.5 10t34.5 2t37.5 -18.5q1 0 1.5 -0.5l0.5 -0.5l417 -289q10 -8 20 -18q-7 -1 -14 0l-99 -1h-1v0h-0.5h-0.5q-13 0 -22 -9t-9 -22v-484q0 -23 -14.5 -39t-35.5 -16h-158
q-13 0 -22 -9.5t-9 -22.5t9 -22t22 -9h158q47 0 79.5 34.5t32.5 83.5v453h69q72 -1 85 37q15 44 -54 95z" />
    <glyph glyph-name="plus" unicode="&#xe630;" 
d="M0 896v-1024h1024v1024h-1024zM983 -87h-942v942h942v-942zM288 364h204v-204q0 -9 6 -15t14 -6t14 6t6 15v204h204q9 0 15 6t6 14t-6 14t-15 6h-204v204q0 9 -6 15t-14 6t-14 -6t-6 -15v-204h-204q-9 0 -15 -6t-6 -14t6 -14t15 -6z" />
    <glyph glyph-name="search" unicode="&#xe60b;" 
d="M948 -3v0l-161 162q37 45 63 104q31 76 31 156q0 79 -31 154v2q-30 72 -87 131l-2 1q-57 58 -132 89h-1q-73 31 -155 31q-83 0 -157.5 -31.5t-131.5 -88.5t-88 -132q-31 -73 -31 -156q0 -81 30 -153l1 -3q32 -77 88 -132h1q56 -57 131 -88v0h1q75 -31 156 -31t156 31
q55 23 104 62l162 -161q11 -11 26.5 -11t26.5 11t11 26.5t-11 26.5v0v0zM708 184v0v0v-1q-47 -46 -108 -71q-61 -26 -127 -26t-128 25v1q-62 25 -107 72v0q-48 48 -73 108l-1 2q-25 60 -25 125q0 68 26 128q25 61 73 108q45 46 106 71.5t129 25.5q65 0 127 -25v0
q62 -26 108 -72l2 -2q46 -46 71 -106v-2q25 -61 25 -126q0 -66 -25 -127q-24 -60 -73 -108v0z" />
    <glyph glyph-name="authority" unicode="&#xe622;" 
d="M507 -77q-15 0 -27 7q-25 13 -57 34q-80 53 -150 121q-78 78 -123 154q-44 76 -44 138v413l43 -14q50 -15 97 -15q138 0 247 71l19 12l18 -12q109 -71 248 -71q47 0 96 15l44 14v-413q0 -59 -46 -135q-45 -75 -127 -153q-71 -68 -153 -123q-33 -22 -57 -35q-13 -8 -28 -8
zM173 377q0 -43 36 -104q39 -68 112 -139q66 -64 140 -114q22 -14 46 -28q24 14 48 30q75 50 144 115q76 73 116 140q36 60 36 100v324q-37 -7 -72 -7q-146 0 -266 71q-121 -71 -267 -71q-34 0 -72 7v-324h-1zM505 330q-61 0 -104.5 43.5t-43.5 104.5t43.5 104.5t104.5 43.5
t104.5 -43.5t43.5 -104.5t-43.5 -104.5t-104.5 -43.5zM505 559q-33 0 -57 -23.5t-24 -57t23.5 -57.5t57 -24t57.5 24t24 57.5t-23.5 57t-57.5 23.5zM509 142q-14 0 -24 10t-10 23v172q0 14 10 24t24 10t24 -10t10 -24v-172q0 -14 -10 -23.5t-24 -9.5zM522 238
q-14 0 -23.5 10t-9.5 24t9.5 23.5t23.5 9.5h58q14 0 23.5 -9.5t9.5 -23.5t-9.5 -24t-23.5 -10h-58z" />
    <glyph glyph-name="logout" unicode="&#xe649;" horiz-adv-x="1214" 
d="M723 -128h-593q-54 0 -92 36t-38 86v780q0 50 38 86t92 36h593q53 0 91.5 -36t38.5 -86v-99q0 -12 -9 -21t-21 -9t-21 9t-9 21v99q0 26 -20.5 44t-49.5 18h-593q-29 0 -49.5 -18t-20.5 -44v-780q0 -26 20.5 -44t49.5 -18h593q29 0 49.5 18t20.5 44v88q0 12 9 21t21 9
t21 -9t9 -21v-88q0 -50 -38.5 -86t-91.5 -36v0zM1184 370h-734q-12 0 -21 8.5t-9 21t9 21t21 8.5h734q12 0 21 -8.5t9 -21t-9 -21t-21 -8.5v0zM967 153q-12 0 -20.5 8.5t-8.5 21t8 21.5l196 195l-196 196q-8 9 -8 21t8.5 21t21 9t20.5 -9l217 -217q9 -8 9 -20.5t-9 -21.5
l-217 -216q-8 -9 -21 -9v0zM967 153z" />
    <glyph glyph-name="security" unicode="&#xe605;" 
d="M525 -113q-50 0 -116 34.5t-127 93.5q-68 65 -105 135.5t-37 134.5v386h27q9 0 28.5 1.5t67 11.5t89.5 27q92 37 157 82l16 12l16 -12q58 -43 157 -82q41 -17 89 -27t67.5 -11.5t28.5 -1.5h26v-386q0 -64 -37 -134.5t-104 -135.5q-61 -59 -127 -93.5t-116 -34.5zM195 285
q0 -57 38 -121t91 -112t109 -79.5t92 -31.5t92 31.5t108.5 79.5t90.5 112t38 121v333l-11 2q-89 9 -166 40q-79 32 -145 74l-7 5l-7 -5q-66 -42 -146 -74q-77 -31 -166 -40l-11 -2v-333v0zM353 280l35 41l108 -92l205 236l42 -36l-241 -276zM525 -101q-48 0 -112.5 35.5
t-122 89t-97.5 125t-40 136.5v373h15q8 0 28 1.5t69 11.5t92 28q94 38 159 84l9 6l9 -6q64 -46 159 -84q43 -18 92 -28t69 -11.5t28 -1.5h14v-373q0 -65 -40 -136.5t-97 -125t-121.5 -89t-112.5 -35.5zM511 745q-65 -41 -143 -73q-76 -30 -163 -40l-23 -2v-345
q0 -60 39.5 -127t94 -116t112.5 -81.5t96.5 -32.5t97 32.5t113 81.5t93.5 116t39 127v345l-23 2q-86 10 -162 40q-78 32 -144 73l-13 9zM371 281l19 22l108 -91l205 235l22 -19l-224 -257z" />
    <glyph glyph-name="bank" unicode="&#xe6b7;" horiz-adv-x="1118" 
d="M1097 333q-9 -8 -21 -8t-20 8l-503 501l-503 -500q-9 -8 -21 -8t-20.5 8t-8.5 19t9 18l508 506q1 0 3.5 2.5l4 4t4 3.5t4 3t4 2.5t4.5 2l4 1t4 0t4 -1.5q11 7 37 -17l507 -506q9 -8 9 -19t-9 -19v0zM387 450q8 7 20 7t21 -7l124 -115l126 115q8 8 20 8t21 -7.5t9 -19
t-9 -19.5l-124 -114h103q12 0 20.5 -7.5t8.5 -18.5t-8.5 -19t-20.5 -8h-116v-80h116q12 0 20.5 -8t8.5 -19t-8.5 -18.5t-20.5 -7.5h-116v-107q0 -11 -8.5 -18.5t-20.5 -7.5t-20.5 7.5t-8.5 18.5v107h-116q-12 0 -20.5 7.5t-8.5 18.5t8.5 19t20.5 8h116v80h-116
q-12 0 -20.5 8t-8.5 19t8.5 18.5t20.5 7.5h102l-124 114q-8 8 -8 19t9 19v0zM118 -75h34q-5 14 -5 27v400q0 11 8.5 18.5t20.5 7.5t20.5 -7.5t8.5 -18.5v-400q0 -16 9.5 -21t28.5 -6h620q20 1 29.5 6t9.5 21v400q0 11 8.5 18.5t20.5 7.5t20.5 -7.5t8.5 -18.5v-400
q0 -13 -6 -27h35q12 0 20.5 -7.5t8.5 -18.5t-8.5 -19t-20.5 -8h-871q-12 0 -20.5 8t-8.5 19t8.5 18.5t20.5 7.5v0z" />
    <glyph glyph-name="calendar" unicode="&#xe682;" 
d="M859 770h-95v83q0 14 -9 25t-22 11t-22.5 -11t-9.5 -25v-83h-378v83q0 16 -9 26t-22 10t-22.5 -11t-9.5 -25v-83h-94q-65 0 -111.5 -46.5t-46.5 -111.5v-599q0 -62 44.5 -97t113.5 -35h692q68 0 113 35.5t45 98.5v598q0 65 -46 111t-111 46v0zM953 40q0 -39 -28 -68
t-67 -29h-692q-40 0 -67.5 26.5t-27.5 65.5v578q0 39 27.5 66.5t67.5 27.5h94v-63q0 -13 9.5 -22t22.5 -9t22 9t9 22v63h378v-63q0 -13 9.5 -22t22.5 -9t22 9t9 22v63h95q39 0 67 -27.5t28 -66.5v-573h-1v0zM307 469h-94q-13 0 -22 -9t-9 -22.5t9 -22.5t22 -9h95
q13 0 22.5 9t9.5 22q-1 14 -10.5 23t-22.5 9v0zM560 469h-95q-13 0 -22.5 -9t-9.5 -22.5t9.5 -22.5t22.5 -9h95q13 0 22 9t9 22.5t-9 22.5t-22 9v0zM811 469h-94q-13 0 -22.5 -9t-9.5 -22.5t9.5 -22.5t22.5 -9h94q13 0 22.5 9t9.5 22.5t-9.5 22.5t-22.5 9v0zM307 343h-94
q-13 0 -22 -9.5t-9 -22.5t9 -22t22 -9h95q13 0 22.5 9t9.5 22t-9.5 22.5t-23.5 9.5v0zM560 343h-95q-13 0 -22.5 -9.5t-9.5 -22.5t9.5 -22t22.5 -9h95q13 0 22 9t9 22t-9 22.5t-22 9.5v0zM811 343h-94q-13 0 -22.5 -9.5t-9.5 -22.5t9.5 -22t22.5 -9h94q13 0 22.5 9t9.5 22
t-9.5 22.5t-22.5 9.5v0zM307 217h-94q-13 0 -22 -9t-9 -22t9 -22.5t22 -9.5h95q13 0 22.5 9.5t9.5 22.5q-1 13 -10.5 22t-22.5 9v0zM560 217h-95q-13 0 -22.5 -9t-9.5 -22t9.5 -22.5t22.5 -9.5h95q13 0 22 9.5t9 22.5t-9 22t-22 9v0zM811 217h-94q-13 0 -22.5 -9t-9.5 -22
t9.5 -22.5t22.5 -9.5h94q13 0 22.5 9.5t9.5 22.5t-9.5 22t-22.5 9v0z" />
    <glyph glyph-name="arrow-right" unicode="&#xe615;" 
d="M724 363l0.5 1t0.5 2q7 13 4.5 28t-13.5 26l-344 325q-14 13 -33 12.5t-32.5 -14.5t-13 -33.5t14.5 -32.5l309 -292l-308 -296q-14 -13 -14 -32.5t13 -33.5q14 -14 34 -14q19 0 32 13l341 328l0.5 1t1 1.5l1.5 1.5t6 9v0zM724 363z" />
    <glyph glyph-name="4" unicode="&#xe61f;" 
d="M510 -128q-44 0 -101 25t-113 69.5t-103.5 99.5t-77.5 121.5t-30 129.5v430l42 1q9 0 29.5 1.5t70.5 12t93 28.5q97 39 165 88l25 18l26 -18q4 -4 20 -14.5t58 -33t87 -40.5q43 -18 94 -28.5t72 -12t30 -1.5l42 -1v-430q0 -63 -30 -129.5t-78 -121.5t-105 -99.5
t-114.5 -69.5t-101.5 -25v0v0v0zM171 665v-348q0 -60 39 -126.5t93.5 -116.5t112 -83t94.5 -33t95.5 33t113.5 83t94.5 116.5t39.5 126.5v348q-101 11 -185 45q-86 35 -158 81q-71 -46 -158 -81q-84 -35 -181 -45v0v0v0zM488 155l-181 154l56 66l115 -99l220 254l65 -56
l-275 -319v0v0z" />
    <glyph glyph-name="payment" unicode="&#xe6a5;" 
d="M506.5 765q77.5 0 148.5 -30q68 -29 121 -81.5t82 -121.5q30 -71 30 -148.5t-30 -148.5q-29 -68 -82 -121t-121 -82q-71 -30 -148.5 -30t-148.5 30q-68 29 -121 82t-82 121q-30 71 -30 148.5t30 148.5q29 69 82 121.5t121 81.5q71 30 148.5 30zM507 832q-91 0 -174 -35.5
t-143 -95.5t-95.5 -143t-35.5 -174t35.5 -174t95.5 -143t143 -95.5t174 -35.5t174 35.5t143 95.5t95 143t35 174t-35 174t-95 143t-143 95.5t-174 35.5v0zM660 363q8 0 14 6t6 14v26q0 9 -6 15t-14 6h-115v2l124 124q6 6 6 14.5t-6 14.5l-19 18q-6 6 -14.5 6t-14.5 -6
l-113 -114l-113 114q-6 6 -14.5 6t-14.5 -6l-18 -18q-6 -6 -6 -14.5t6 -14.5l126 -126h-110q-8 0 -14 -6t-6 -15v-26q0 -8 6 -14t14 -6h115v-63h-115q-8 0 -14 -6t-6 -15v-25q0 -9 6 -15t14 -6h115v-60q0 -9 6 -15t14 -6h26q8 0 14 6t6 15v60h115q8 0 14 6t6 15v25
q0 9 -6 15t-14 6h-115v63h115z" />
    <glyph glyph-name="customer" unicode="&#xe626;" horiz-adv-x="1180" 
d="M882 374q53 41 84 101.5t31 129.5q0 121 -85.5 206t-205.5 85q-18 0 -40 -3q23 -41 42 -91q81 -1 138 -58.5t57 -138.5q0 -63 -37.5 -113.5t-95.5 -71.5q-2 -61 -8 -110q138 -21 231 -127.5t93 -247.5h94q0 147 -82.5 266.5t-215.5 172.5v0zM650 312q53 40 84 100.5
t31 130.5q0 120 -85.5 205t-205.5 85t-205.5 -85t-85.5 -205q0 -70 31 -130.5t84 -100.5q-133 -54 -215.5 -173.5t-82.5 -266.5h94q0 103 51 190.5t138.5 138.5t190.5 51t190.5 -51t138.5 -138.5t51 -190.5h94q0 147 -82.5 266.5t-215.5 173.5v0zM474 739q81 0 139 -57.5
t58 -139t-58 -139t-139 -57.5t-139 57.5t-58 139t58 139t139 57.5v0zM474 739z" />
    <glyph glyph-name="unchecked" unicode="&#xe655;" 
d="M834 -62h-641q-53 0 -90.5 37t-37.5 90v641q0 53 37.5 90.5t90.5 37.5h641q53 0 90 -37.5t37 -90.5v-641q0 -53 -37 -90t-90 -37zM193 793q-36 0 -61.5 -25.5t-25.5 -61.5v-641q0 -36 25.5 -61t61.5 -25h641q36 0 61 25t25 61v641q0 36 -25 61.5t-61 25.5h-641z" />
    <glyph glyph-name="arrow-down" unicode="&#xe600;" 
d="M491 172l1 -0.5t2 -0.5q13 -7 28 -4.5t26 13.5l325 344q13 14 12.5 33t-14.5 32.5t-33.5 13t-32.5 -14.5l-292 -309l-296 308q-13 14 -32.5 14t-33.5 -13q-14 -14 -14 -34q0 -19 13 -32l328 -341l1 -0.5t1.5 -1l1.5 -1.5t9 -6v0zM491 172z" />
    <glyph glyph-name="financeProxy" unicode="&#xe692;" 
d="M516 -122q-101 0 -194.5 41t-161.5 109.5t-108.5 163.5t-40.5 198.5t40.5 197.5t108.5 161.5t161.5 107t194.5 39.5q102 0 195.5 -40.5t161.5 -108.5t108.5 -161.5t40.5 -195.5q0 -101 -40 -195.5t-107 -163.5t-161 -111t-198 -42zM427 173q0 -15 12 -27t26 -12h70
q15 0 27 12t12 27v230q0 15 -12 27t-27 12h-70q-14 0 -26 -12t-12 -27v-230zM247 173q0 -15 12 -27t27 -12h70q15 0 27 12t12 27v141q0 14 -12 26t-27 12h-70q-15 0 -27 -12t-12 -26v-141zM740 691q0 2 0.5 7.5t0 7.5t-2 5t-6 4.5t-11.5 1.5h-90q-8 0 -13.5 -6.5t-5.5 -12.5
q0 -20 19 -20h58l-474 -275q-5 -3 -6.5 -5.5t-0.5 -7.5t1 -6q13 -13 26 -6l467 268v-38q0 -19 19 -19t19 19v83zM727 550h-83q-32 0 -32 -38v-346q0 -14 12 -26t27 -12h70q14 0 26 12t12 26v346q-1 1 0.5 9.5t-6.5 18.5t-26 10z" />
    <glyph glyph-name="checked" unicode="&#xe609;" 
d="M832 788h-640q-40 0 -68 -28t-28 -68v-640q0 -40 28 -68t68 -28h640q40 0 68 28t28 68v640q0 40 -28 68t-68 28zM727 446l-256 -259v-1v0q-2 -1 -7 -4q-1 -1 -2 -1.5t-2 -1.5q-6 -2 -12 -2t-12 2q-1 1 -2 1.5t-1 1.5q-6 3 -7 4v1h-1l-126 129q-9 10 -9 23t9.5 22.5t23 9
t22.5 -9.5l103 -106l234 236q9 9 22.5 9t22.5 -9.5t9.5 -22.5t-9.5 -22z" />
  </font>
</defs>
</svg>
